<svg xmlns="http://www.w3.org/2000/svg" width="32" height="32" data-tags="document-checked"><path d="M16.0218125 29H6.99740625c-1.1065 0-1.9974375-.89871875-1.9974375-2.00734375V4.0073125c0-1.109.89925-2.00734375 2.00853125-2.00734375h9.99146875V8.001875c0 1.11140625.89809375 1.99809375 2.00590625 1.99809375h4.99409375V19.498125c-.76959375-.3209375-1.61409375-.49815625-2.5-.49815625-3.58984375 0-6.5 2.91015625-6.5 6.5 0 1.28865625.375 2.4896875 1.0218125 3.5zM18 2v5.9970625C18 8.55096875 18.45096875 9 18.99078125 9H24l-6-7zm3.5 29c3.0375625 0 5.5-2.4624375 5.5-5.5S24.5375625 20 21.5 20 16 22.4624375 16 25.5s2.4624375 5.5 5.5 5.5zm-.5-2.75734375l-2.3535625-2.3535625.73221875-.73221875 1.6213125 1.6213125 3.1213125-3.1213125.73221875.73221875-3.8535625 3.8535625z" fill="#444"/></svg>