<svg xmlns="http://www.w3.org/2000/svg" width="32" height="32" data-tags="study,graduation,hat,college"><path d="M32 8c0-1.406-.957-2.608-2.326-2.924L16.661 2.073C16.443 2.024 16.221 2 16 2s-.443.024-.675.076l-12.999 3C.956 5.392 0 6.594 0 8s.957 2.608 2.325 2.924L5 11.541V20c0 2.654 3.038 5 11 5s11-2.346 11-5v-8.459l2.674-.617C31.043 10.608 32 9.406 32 8zm-7 12c0 1.105-3 3-9 3s-9-1.895-9-3v-7.997l8.338 1.924c.218.049.441.073.662.073s.444-.024.674-.076L25 12.003V20zm-8.775-8.025c-.075.016-.15.025-.225.025s-.151-.009-.225-.025l-13-3C2.321 8.87 2 8.466 2 8s.321-.87.775-.975l13-3C15.849 4.009 15.924 4 16 4s.151.009.225.025l13 3c.453.105.775.509.775.975s-.322.87-.775.975l-13 3zM29 13c0-.553.447-1 1-1 .552 0 1 .447 1 1v9c0 .553-.448 1-1 1-.553 0-1-.447-1-1v-9zm1 11c1.104 0 2 2.896 2 4s-.896 2-2 2c-1.105 0-2-.896-2-2s.895-4 2-4z" fill="#444"/></svg>